<svg width="246" height="72" viewBox="0 0 246 72" fill="none" xmlns="http://www.w3.org/2000/svg">
<g filter="url(#filter0_dd)">
<rect x="4" y="3" width="238" height="64" rx="3" fill="white"/>
<rect x="4" y="3" width="238" height="64" rx="3" stroke="#E5E5E5" stroke-width="0.5"/>
</g>
<path d="M98.6498 19.452L97.2173 23.328H100.131L98.6988 19.452H98.6498ZM95.9806 26.688H94.7318L98.0376 18.096H99.311L102.617 26.688H101.368L100.523 24.36H96.8377L95.9806 26.688Z" fill="#666666"/>
<path d="M105.753 26.688H104.627L102.203 20.808H103.427L105.19 25.368H105.215L107.002 20.808H108.202L105.753 26.688Z" fill="#666666"/>
<path d="M109.638 24.888C109.638 25.176 109.76 25.416 110.005 25.608C110.258 25.8 110.552 25.896 110.887 25.896C111.36 25.896 111.781 25.724 112.148 25.38C112.524 25.036 112.711 24.632 112.711 24.168C112.36 23.896 111.871 23.76 111.242 23.76C110.785 23.76 110.401 23.868 110.091 24.084C109.789 24.3 109.638 24.568 109.638 24.888ZM111.095 20.616C111.928 20.616 112.585 20.836 113.066 21.276C113.548 21.708 113.789 22.304 113.789 23.064V26.688H112.711V25.872H112.662C112.197 26.544 111.577 26.88 110.801 26.88C110.14 26.88 109.585 26.688 109.136 26.304C108.695 25.92 108.475 25.44 108.475 24.864C108.475 24.256 108.708 23.772 109.173 23.412C109.646 23.052 110.275 22.872 111.058 22.872C111.728 22.872 112.279 22.992 112.711 23.232V22.98C112.711 22.596 112.556 22.272 112.246 22.008C111.936 21.736 111.573 21.6 111.156 21.6C110.528 21.6 110.03 21.86 109.663 22.38L108.671 21.768C109.218 21 110.026 20.616 111.095 20.616Z" fill="#666666"/>
<path d="M116.516 18.78C116.516 18.996 116.439 19.18 116.284 19.332C116.129 19.484 115.941 19.56 115.72 19.56C115.5 19.56 115.312 19.484 115.157 19.332C115.002 19.18 114.925 18.996 114.925 18.78C114.925 18.564 115.002 18.38 115.157 18.228C115.312 18.076 115.5 18 115.72 18C115.941 18 116.129 18.076 116.284 18.228C116.439 18.38 116.516 18.564 116.516 18.78ZM116.284 20.808V26.688H115.157V20.808H116.284Z" fill="#666666"/>
<path d="M118.876 18.096V26.688H117.75V18.096H118.876Z" fill="#666666"/>
<path d="M121.009 24.888C121.009 25.176 121.132 25.416 121.376 25.608C121.629 25.8 121.923 25.896 122.258 25.896C122.731 25.896 123.152 25.724 123.519 25.38C123.895 25.036 124.082 24.632 124.082 24.168C123.731 23.896 123.242 23.76 122.613 23.76C122.156 23.76 121.772 23.868 121.462 24.084C121.16 24.3 121.009 24.568 121.009 24.888ZM122.466 20.616C123.299 20.616 123.956 20.836 124.437 21.276C124.919 21.708 125.16 22.304 125.16 23.064V26.688H124.082V25.872H124.033C123.568 26.544 122.948 26.88 122.172 26.88C121.511 26.88 120.956 26.688 120.507 26.304C120.066 25.92 119.846 25.44 119.846 24.864C119.846 24.256 120.079 23.772 120.544 23.412C121.017 23.052 121.646 22.872 122.429 22.872C123.099 22.872 123.65 22.992 124.082 23.232V22.98C124.082 22.596 123.927 22.272 123.617 22.008C123.307 21.736 122.944 21.6 122.527 21.6C121.899 21.6 121.401 21.86 121.034 22.38L120.042 21.768C120.589 21 121.397 20.616 122.466 20.616Z" fill="#666666"/>
<path d="M129.601 26.88C129.161 26.88 128.757 26.788 128.389 26.604C128.03 26.42 127.753 26.176 127.557 25.872H127.508V26.688H126.43V18.096H127.557V20.808L127.508 21.624H127.557C127.753 21.32 128.03 21.076 128.389 20.892C128.757 20.708 129.161 20.616 129.601 20.616C130.393 20.616 131.063 20.92 131.609 21.528C132.173 22.144 132.454 22.884 132.454 23.748C132.454 24.62 132.173 25.36 131.609 25.968C131.063 26.576 130.393 26.88 129.601 26.88ZM129.418 25.872C129.957 25.872 130.41 25.672 130.777 25.272C131.144 24.88 131.328 24.372 131.328 23.748C131.328 23.132 131.144 22.624 130.777 22.224C130.41 21.824 129.957 21.624 129.418 21.624C128.871 21.624 128.414 21.824 128.046 22.224C127.687 22.624 127.508 23.132 127.508 23.748C127.508 24.372 127.687 24.884 128.046 25.284C128.414 25.676 128.871 25.872 129.418 25.872Z" fill="#666666"/>
<path d="M134.552 18.096V26.688H133.425V18.096H134.552Z" fill="#666666"/>
<path d="M138.558 26.88C137.676 26.88 136.95 26.584 136.379 25.992C135.807 25.4 135.521 24.652 135.521 23.748C135.521 22.852 135.799 22.108 136.354 21.516C136.909 20.916 137.619 20.616 138.484 20.616C139.374 20.616 140.08 20.9 140.603 21.468C141.133 22.028 141.399 22.816 141.399 23.832L141.386 23.952H136.672C136.689 24.528 136.885 24.992 137.26 25.344C137.636 25.696 138.085 25.872 138.607 25.872C139.325 25.872 139.888 25.52 140.297 24.816L141.301 25.296C141.031 25.792 140.656 26.18 140.174 26.46C139.701 26.74 139.162 26.88 138.558 26.88ZM136.758 23.04H140.199C140.166 22.632 139.995 22.296 139.684 22.032C139.382 21.76 138.974 21.624 138.46 21.624C138.036 21.624 137.668 21.752 137.358 22.008C137.056 22.264 136.856 22.608 136.758 23.04Z" fill="#666666"/>
<path d="M144.776 23.748C144.776 22.844 145.066 22.096 145.645 21.504C146.233 20.912 146.972 20.616 147.862 20.616C148.751 20.616 149.486 20.912 150.065 21.504C150.653 22.096 150.947 22.844 150.947 23.748C150.947 24.66 150.653 25.408 150.065 25.992C149.486 26.584 148.751 26.88 147.862 26.88C146.972 26.88 146.233 26.584 145.645 25.992C145.066 25.4 144.776 24.652 144.776 23.748ZM145.903 23.748C145.903 24.38 146.09 24.892 146.466 25.284C146.841 25.676 147.307 25.872 147.862 25.872C148.417 25.872 148.882 25.676 149.257 25.284C149.633 24.892 149.821 24.38 149.821 23.748C149.821 23.124 149.633 22.616 149.257 22.224C148.874 21.824 148.408 21.624 147.862 21.624C147.315 21.624 146.849 21.824 146.466 22.224C146.09 22.616 145.903 23.124 145.903 23.748Z" fill="#666666"/>
<path d="M151.851 20.808H152.928V21.624H152.977C153.149 21.336 153.41 21.096 153.761 20.904C154.12 20.712 154.491 20.616 154.875 20.616C155.61 20.616 156.173 20.824 156.565 21.24C156.965 21.648 157.165 22.232 157.165 22.992V26.688H156.038V23.064C156.014 22.104 155.52 21.624 154.557 21.624C154.108 21.624 153.732 21.804 153.43 22.164C153.128 22.516 152.977 22.94 152.977 23.436V26.688H151.851V20.808Z" fill="#666666"/>
<path fill-rule="evenodd" clip-rule="evenodd" d="M124.387 39.5122C121.806 39.5122 119.713 41.4063 119.713 44.0188C119.713 46.6076 121.819 48.5254 124.387 48.5254C126.969 48.5254 129.062 46.6182 129.062 44.0188C129.062 41.4063 126.969 39.5122 124.387 39.5122ZM124.387 46.7397C122.975 46.7397 121.759 45.6091 121.759 44.0083C121.759 42.3837 122.978 41.2768 124.387 41.2768C125.8 41.2768 127.016 42.3837 127.016 44.0083C127.019 45.6197 125.8 46.7397 124.387 46.7397ZM114.188 39.5122C111.606 39.5122 109.513 41.4063 109.513 44.0188C109.513 46.6076 111.62 48.5254 114.188 48.5254C116.77 48.5254 118.863 46.6182 118.863 44.0188C118.863 41.4063 116.767 39.5122 114.188 39.5122ZM114.188 46.7397C112.775 46.7397 111.56 45.6091 111.56 44.0083C111.56 42.3837 112.778 41.2768 114.188 41.2768C115.601 41.2768 116.816 42.3837 116.816 44.0083C116.816 45.6197 115.601 46.7397 114.188 46.7397ZM102.051 40.8885V42.7958H106.786C106.642 43.8656 106.275 44.6555 105.715 45.197C105.021 45.868 103.95 46.5971 102.062 46.5971C99.1525 46.5971 96.8766 44.3253 96.8766 41.5119C96.8766 38.6986 99.1525 36.4268 102.062 36.4268C103.633 36.4268 104.778 37.0265 105.628 37.7926L107.027 36.4401C105.847 35.3464 104.275 34.509 102.073 34.509C98.0815 34.509 94.7318 37.6526 94.7318 41.5014C94.7318 45.3608 98.0788 48.4937 102.073 48.4937C104.229 48.4937 105.847 47.8122 107.125 46.5284C108.428 45.2683 108.841 43.4905 108.841 42.0561C108.841 41.6097 108.806 41.2082 108.732 40.8674H102.049C102.051 40.8648 102.051 40.8885 102.051 40.8885ZM151.693 42.3731C151.303 41.3614 150.122 39.5017 147.702 39.5017C145.303 39.5017 143.308 41.327 143.308 44.0083C143.308 46.5389 145.281 48.5149 147.934 48.5149C150.065 48.5149 151.305 47.2548 151.816 46.5152L150.234 45.4902C149.71 46.2431 148.98 46.7371 147.945 46.7371C146.898 46.7371 146.166 46.2774 145.68 45.3713L151.912 42.875C151.912 42.8777 151.693 42.3731 151.693 42.3731ZM145.338 43.8788C145.289 42.138 146.737 41.2531 147.773 41.2531C148.59 41.2531 149.27 41.6414 149.502 42.2067L145.338 43.8788ZM140.275 48.2454H142.322V35.0057H140.275V48.2454ZM136.915 40.5134H136.841C136.379 39.9825 135.502 39.5017 134.382 39.5017C132.057 39.5017 129.915 41.4802 129.915 44.0215C129.915 46.5521 132.046 48.5069 134.382 48.5069C135.489 48.5069 136.379 48.0235 136.841 47.482H136.915V48.1292C136.915 49.8489 135.964 50.7761 134.431 50.7761C133.177 50.7761 132.398 49.9044 132.081 49.1753L130.303 49.8938C130.814 51.0825 132.177 52.5539 134.428 52.5539C136.827 52.5539 138.86 51.1882 138.86 47.8571V39.7711H136.926V40.5134C136.928 40.5134 136.915 40.5134 136.915 40.5134ZM134.565 46.7397C133.152 46.7397 131.972 45.5985 131.972 44.0215C131.972 42.4312 133.152 41.2795 134.565 41.2795C135.964 41.2795 137.049 42.4444 137.049 44.0215C137.062 45.5985 135.967 46.7397 134.565 46.7397ZM161.275 35.0057H156.382V48.2454H158.428V43.2316H161.278C163.543 43.2316 165.77 41.644 165.77 39.1239C165.77 36.6038 163.551 35.0057 161.275 35.0057ZM161.335 41.3825H158.426V36.8389H161.335C162.868 36.8389 163.734 38.062 163.734 39.1107C163.734 40.1489 162.857 41.3825 161.335 41.3825ZM173.972 39.4885C172.486 39.4885 170.953 40.1251 170.319 41.5119L172.133 42.241C172.524 41.512 173.24 41.2636 173.997 41.2636C175.057 41.2636 176.128 41.8765 176.152 42.9701V43.1101C175.786 42.9094 174.983 42.6029 174.021 42.6029C172.062 42.6029 170.076 43.6384 170.076 45.58C170.076 47.3578 171.682 48.499 173.472 48.499C174.846 48.499 175.603 47.8994 176.076 47.2046H176.15V48.2296H178.122V43.1577C178.122 40.7961 176.308 39.4885 173.972 39.4885ZM173.715 46.7397C173.046 46.7397 172.109 46.4227 172.109 45.6091C172.109 44.5841 173.278 44.1958 174.275 44.1958C175.177 44.1958 175.603 44.3834 176.139 44.6423C175.991 45.831 174.953 46.7291 173.715 46.7397ZM185.319 39.7711L182.969 45.514H182.896L180.461 39.7711H178.259L181.912 47.799L179.83 52.2607H181.961L187.581 39.7711H185.319ZM166.898 48.2454H168.945V35.0057H166.898V48.2454Z" fill="#666666"/>
<path fill-rule="evenodd" clip-rule="evenodd" d="M58.5458 20.9373C58.1998 21.3035 58 21.8632 58 22.5958V48.5778C58 49.3103 58.1998 49.87 58.5577 50.2216L58.6502 50.3007L73.4663 35.7435V35.4183L58.6382 20.8582L58.5458 20.9373Z" fill="url(#paint0_linear)"/>
<path fill-rule="evenodd" clip-rule="evenodd" d="M78.3966 40.6108L73.4549 35.7555V35.4156L78.3966 30.5603L78.504 30.6248L84.3494 33.889C86.0225 34.8149 86.0225 36.3445 84.3494 37.2821L78.504 40.5463L78.3966 40.6108Z" fill="url(#paint1_linear)"/>
<path fill-rule="evenodd" clip-rule="evenodd" d="M78.5038 40.5462L73.4547 35.5854L58.5461 50.2334C59.0919 50.8078 60.0074 50.8722 61.0304 50.3126L78.5038 40.5462Z" fill="url(#paint2_linear)"/>
<path fill-rule="evenodd" clip-rule="evenodd" d="M78.5038 30.6245L61.0304 20.8728C60.0074 20.2985 59.0889 20.3776 58.5461 20.9519L73.4547 35.5853L78.5038 30.6245Z" fill="url(#paint3_linear)"/>
<path opacity="0.2" fill-rule="evenodd" clip-rule="evenodd" d="M78.3967 40.4401L61.0425 50.1273C60.0732 50.6753 59.2083 50.6372 58.6506 50.139L58.5582 50.2299L58.6506 50.309C59.2083 50.8042 60.0732 50.8452 61.0425 50.2973L78.516 40.5456L78.3967 40.4401Z" fill="black"/>
<path opacity="0.12" fill-rule="evenodd" clip-rule="evenodd" d="M84.349 37.112L78.3814 40.4407L78.4888 40.5462L84.3341 37.282C85.1722 36.8131 85.5837 36.1978 85.5837 35.5854C85.533 36.148 85.1065 36.6813 84.349 37.112Z" fill="black"/>
<path opacity="0.25" fill-rule="evenodd" clip-rule="evenodd" d="M61.0301 21.0427L84.3489 34.0586C85.1064 34.4776 85.5328 35.0255 85.5984 35.5852C85.5984 34.9728 85.1869 34.3575 84.3489 33.8886L61.0301 20.8728C59.357 19.9322 58 20.7175 58 22.5957V22.7657C58 20.8845 59.357 20.1138 61.0301 21.0427Z" fill="#666666"/>
<defs>
<filter id="filter0_dd" x="0.75" y="0.75" width="244.5" height="70.5" filterUnits="userSpaceOnUse" color-interpolation-filters="sRGB">
<feFlood flood-opacity="0" result="BackgroundImageFix"/>
<feColorMatrix in="SourceAlpha" type="matrix" values="0 0 0 0 0 0 0 0 0 0 0 0 0 0 0 0 0 0 127 0"/>
<feOffset dy="1"/>
<feGaussianBlur stdDeviation="1.5"/>
<feColorMatrix type="matrix" values="0 0 0 0 0.2471 0 0 0 0 0.2471 0 0 0 0 0.2667 0 0 0 0.15 0"/>
<feBlend mode="normal" in2="BackgroundImageFix" result="effect1_dropShadow"/>
<feColorMatrix in="SourceAlpha" type="matrix" values="0 0 0 0 0 0 0 0 0 0 0 0 0 0 0 0 0 0 127 0"/>
<feOffset/>
<feColorMatrix type="matrix" values="0 0 0 0 0.2471 0 0 0 0 0.2471 0 0 0 0 0.2667 0 0 0 0.05 0"/>
<feBlend mode="normal" in2="effect1_dropShadow" result="effect2_dropShadow"/>
<feBlend mode="normal" in="SourceGraphic" in2="effect2_dropShadow" result="shape"/>
</filter>
<linearGradient id="paint0_linear" x1="72.1373" y1="22.3154" x2="48.4608" y2="28.7363" gradientUnits="userSpaceOnUse">
<stop stop-color="#00A0FF"/>
<stop offset="0.00657" stop-color="#00A1FF"/>
<stop offset="0.2601" stop-color="#00BEFF"/>
<stop offset="0.5122" stop-color="#00D2FF"/>
<stop offset="0.7604" stop-color="#00DFFF"/>
<stop offset="1" stop-color="#00E3FF"/>
</linearGradient>
<linearGradient id="paint1_linear" x1="86.5312" y1="35.5856" x2="57.5938" y2="35.5856" gradientUnits="userSpaceOnUse">
<stop stop-color="#FFE000"/>
<stop offset="0.4087" stop-color="#FFBD00"/>
<stop offset="0.7754" stop-color="#FFA500"/>
<stop offset="1" stop-color="#FF9C00"/>
</linearGradient>
<linearGradient id="paint2_linear" x1="75.7583" y1="38.2848" x2="57.198" y2="70.079" gradientUnits="userSpaceOnUse">
<stop stop-color="#FF3A44"/>
<stop offset="1" stop-color="#C31162"/>
</linearGradient>
<linearGradient id="paint3_linear" x1="54.7919" y1="12.2952" x2="63.0723" y2="26.4948" gradientUnits="userSpaceOnUse">
<stop stop-color="#32A071"/>
<stop offset="0.0685" stop-color="#2DA771"/>
<stop offset="0.4762" stop-color="#15CF74"/>
<stop offset="0.8009" stop-color="#06E775"/>
<stop offset="1" stop-color="#00F076"/>
</linearGradient>
</defs>
</svg>
